<?xml version="1.0" standalone="no"?>
<!DOCTYPE svg PUBLIC "-//W3C//DTD SVG 20010904//EN"
 "http://www.w3.org/TR/2001/REC-SVG-20010904/DTD/svg10.dtd">
<svg version="1.0" xmlns="http://www.w3.org/2000/svg"
 width="120.000000pt" height="60.000000pt" viewBox="0 0 120.000000 60.000000"
 preserveAspectRatio="xMidYMid meet">

<g transform="translate(0.000000,60.000000) scale(0.100000,-0.100000)"
fill="#000000" stroke="none">
<path d="M481 445 c-1 -47 2 -75 8 -75 7 0 11 23 11 55 0 42 3 55 15 55 12 0
15 -13 15 -55 0 -30 5 -55 10 -55 6 0 10 25 10 56 l0 56 45 -4 c41 -3 45 -1
45 19 0 21 -5 23 -55 23 -42 0 -55 -3 -55 -15 0 -8 -7 -15 -15 -15 -8 0 -15 7
-15 15 0 8 -4 15 -9 15 -4 0 -9 -34 -10 -75z"/>
<path d="M587 453 c-4 -3 -7 -24 -7 -45 0 -31 3 -38 20 -38 15 0 20 7 20 29 0
49 -15 73 -33 54z"/>
<path d="M480 303 c0 -10 4 -14 8 -8 4 6 11 13 16 18 5 4 2 7 -7 7 -10 0 -17
-8 -17 -17z"/>
<path d="M598 303 c-2 -13 -13 -18 -37 -18 -48 0 -49 -20 -2 -45 88 -45 52
-133 -49 -118 -27 4 -30 2 -30 -24 l0 -28 160 0 160 0 0 99 0 98 54 2 c46 1
57 -3 70 -21 38 -54 9 -128 -50 -128 -30 0 -34 -3 -34 -25 l0 -25 138 0 137 0
0 125 0 125 -257 0 c-236 0 -257 -1 -260 -17z m72 -80 c0 -61 12 -82 34 -64
11 9 16 30 16 62 0 42 3 49 20 49 18 0 20 -7 20 -74 l0 -73 -55 -2 c-65 -1
-75 11 -75 93 0 49 2 56 20 56 17 0 20 -7 20 -47z m399 34 c6 -8 14 -28 17
-45 l7 -32 -53 0 c-46 0 -51 -2 -40 -15 8 -10 25 -15 44 -13 22 2 31 -1 31
-12 0 -10 -13 -16 -42 -18 -59 -4 -87 24 -80 81 3 23 14 47 23 54 23 17 79 17
93 0z"/>
<path d="M1000 225 c-11 -13 -9 -15 15 -15 16 0 25 5 23 12 -7 19 -24 20 -38
3z"/>
<path d="M480 203 c0 -37 2 -41 31 -47 44 -8 66 10 43 35 -10 11 -22 19 -27
19 -6 0 -19 7 -29 17 -17 15 -18 14 -18 -24z"/>
<path d="M852 228 c-18 -18 -15 -65 4 -72 35 -13 60 44 32 72 -15 15 -21 15
-36 0z"/>
</g>
</svg>
